<svg id="Layer_1" data-name="Layer 1" xmlns="http://www.w3.org/2000/svg" viewBox="0 0 1000 1000">
  <defs>
    <style>
      .cls-1 {
        fill: none;
        stroke: #dbdbdb;
        stroke-miterlimit: 10;
        stroke-width: 20px;
      }

      .cls-2 {
        opacity: 0.65;
      }

      .cls-3 {
        fill: #dbdbdb;
      }
    </style>
  </defs>
  <rect class="cls-1" x="108" y="108" width="784" height="784" rx="79.07"/>
  <g class="cls-2">
    <path class="cls-3" d="M671,380.6V386H557V272h5.4a21.36,21.36,0,0,1,15.11,6.26l87.23,87.23A21.36,21.36,0,0,1,671,380.6ZM549.87,414.5a21.44,21.44,0,0,1-21.37-21.38V272H350.38A21.38,21.38,0,0,0,329,293.37V706.63A21.38,21.38,0,0,0,350.38,728H649.62A21.38,21.38,0,0,0,671,706.63V414.5ZM438.73,628.41a4.81,4.81,0,0,1-6.8.22h0l-57.77-54.16a4.81,4.81,0,0,1-.22-6.8,2.28,2.28,0,0,1,.22-.22l57.77-54.16a4.81,4.81,0,0,1,6.8.22h0l17.43,18.6a4.81,4.81,0,0,1-.22,6.8l-.11.1-36.3,32,36.3,31.95a4.81,4.81,0,0,1,.44,6.79l-.11.11-17.43,18.6Zm45.68,45L460,666.27a4.81,4.81,0,0,1-3.28-6L511.4,471.83a4.81,4.81,0,0,1,6-3.28l24.45,7.1a4.81,4.81,0,0,1,3.28,6h0L490.37,670.09a4.8,4.8,0,0,1-5.95,3.28Zm143.21-98.9-57.77,54.16a4.81,4.81,0,0,1-6.8-.22h0l-17.44-18.6a4.81,4.81,0,0,1,.22-6.8l.11-.1L582.25,571l-36.31-32a4.81,4.81,0,0,1-.43-6.79l.1-.11,17.44-18.6a4.81,4.81,0,0,1,6.8-.22h0l57.77,54.16a4.82,4.82,0,0,1,.22,6.8l-.22.22Z"/>
  </g>
</svg>
