<svg id="Layer_1" data-name="Layer 1" xmlns="http://www.w3.org/2000/svg" viewBox="0 0 3000 3000">
  <defs>
    <style>
      .cls-1 {
        opacity: 0.15;
      }
    </style>
  </defs>
  <g>
    <g class="cls-1">
      <path d="M2646.93,1648s-31.85,31.79-70.74,70.68L1717.92,2577c-38.89,38.89-70.69,70.72-70.68,70.74s-17.16,17.23-38.17,38.24-65.79,38.21-99.49,38.21-93.1-31.82-132-70.71l-220.25-220.25c-38.89-38.89-38.89-102.53,0-141.42l59.57-59.57c38.89-38.89,102.53-38.89,141.42,0l101.27,101.27c38.9,38.89,96.42,72,127.84,73.59s88.94-28.94,127.83-67.83L1933.46,2121c38.89-38.89,69.41-96.42,67.83-127.83s-34.71-89-73.6-127.84l-176.1-176.1c-38.89-38.89-96.41-72-127.83-73.59s-88.94,28.95-127.83,67.84l-207.31,207.3c-38.89,38.9-91.8,70.72-117.59,70.72s-78.7-31.82-117.59-70.72L796.91,1634.29C758,1595.4,726.2,1541.5,726.2,1514.51s31.83-80.88,70.72-119.77l570.29-570.3c38.89-38.89,93-70.71,120.33-70.71s81.45,31.82,120.34,70.71l615.4,615.4c38.89,38.9,93.06,70.72,120.38,70.72s63.62-13.94,80.65-31-.84-62.8-39.73-101.69l-776.7-776.71c-38.89-38.89-93.07-70.71-120.39-70.71s-63.61,13.94-80.65,31-31,31-30.95,31-31.79,31.85-70.69,70.74l-669,669c-38.89,38.89-70.72,70.7-70.74,70.68s-14,13.92-31,31-31,33.13-31,35.77,0,25,0,49.67,31.82,76.7,70.71,115.59L988.7,2049.32c38.89,38.89,46.5,94.92,16.9,124.52s-85.62,22-124.51-16.91L386.44,1662.29c-38.89-38.89-70.59-70.83-70.44-71s-8.84-9.37-20-20.49-20.23-47.8-20.23-81.5,17.2-78.47,38.21-99.49,38.23-38.2,38.25-38.18S384.12,1319.86,423,1281L1281.28,422.7C1320.17,383.81,1352,352,1352,352s17.16-17.22,38.17-38.24,65.79-38.21,99.49-38.21,93.1,31.82,132,70.71l991.14,991.14c38.89,38.89,70.59,70.84,70.44,71s8.84,9.37,20,20.5,20.22,47.79,20.22,81.5-17.2,78.47-38.21,99.48S2647,1648,2646.93,1648Z"/>
    </g>
    <g class="cls-1">
      <path d="M1574.56,2151.61c-30.71-1.55-67.06-14-80.78-27.75s-26.22-50.37-27.79-81.43,23.49-82.82,55.67-115,83.93-57.23,115-55.67,67.4,13.77,80.75,27.12,25.56,50,27.14,81.39-23.45,83.45-55.63,115.63S1605.27,2153.15,1574.56,2151.61Z"/>
    </g>
  </g>
</svg>
